<?xml version="1.0" encoding="UTF-8" standalone="no"?>
<!-- Created with Inkscape (http://www.inkscape.org/) -->

<svg
   xmlns:dc="http://purl.org/dc/elements/1.1/"
   xmlns:cc="http://creativecommons.org/ns#"
   xmlns:rdf="http://www.w3.org/1999/02/22-rdf-syntax-ns#"
   xmlns:svg="http://www.w3.org/2000/svg"
   xmlns="http://www.w3.org/2000/svg"
   xmlns:sodipodi="http://sodipodi.sourceforge.net/DTD/sodipodi-0.dtd"
   xmlns:inkscape="http://www.inkscape.org/namespaces/inkscape"
   width="48"
   height="48"
   viewBox="0 0 48 48"
   id="svg4741"
   version="1.1"
   inkscape:version="0.92.1 r"
   sodipodi:docname="ic_launcher.svg">
  <defs
     id="defs4743">
    <filter
       inkscape:collect="always"
       style="color-interpolation-filters:sRGB"
       id="filter4580"
       x="-0.037333333"
       width="1.0746667"
       y="-0.0672"
       height="1.1344">
      <feGaussianBlur
         inkscape:collect="always"
         stdDeviation="0.42"
         id="feGaussianBlur4582" />
    </filter>
  </defs>
  <sodipodi:namedview
     id="base"
     pagecolor="#ffffff"
     bordercolor="#666666"
     borderopacity="1.0"
     inkscape:pageopacity="0.0"
     inkscape:pageshadow="2"
     inkscape:zoom="15.839192"
     inkscape:cx="15.548246"
     inkscape:cy="-2.3316487"
     inkscape:document-units="px"
     inkscape:current-layer="layer1"
     showgrid="false"
     units="px"
     inkscape:window-width="3840"
     inkscape:window-height="2087"
     inkscape:window-x="1920"
     inkscape:window-y="44"
     inkscape:window-maximized="1"
     scale-x="1" />
  <metadata
     id="metadata4746">
    <rdf:RDF>
      <cc:Work
         rdf:about="">
        <dc:format>image/svg+xml</dc:format>
        <dc:type
           rdf:resource="http://purl.org/dc/dcmitype/StillImage" />
        <dc:title />
      </cc:Work>
    </rdf:RDF>
  </metadata>
  <g
     inkscape:label="Ebene 1"
     inkscape:groupmode="layer"
     id="layer1"
     transform="translate(0,-1007.5622)">
    <g
       transform="translate(-4e-6,3.0999995)"
       id="g4547">
      <ellipse
         ry="21.999985"
         rx="21.999989"
         cy="1028.3622"
         cx="23.999994"
         id="path4137"
         style="fill:#1976d2;fill-opacity:1;stroke:#000000;stroke-width:0;stroke-miterlimit:4;stroke-dasharray:none;stroke-opacity:0" />
      <path
         inkscape:connector-curvature="0"
         id="path4137-0"
         d="m 24.000005,1006.3622 a 21.999989,21.999494 0 0 0 -22,21.9995 21.999989,21.999494 0 0 0 0.0059,0.1465 21.999989,21.999494 0 0 1 21.994141,-21.896 21.999989,21.999494 0 0 1 21.994141,21.853 21.999989,21.999494 0 0 0 0.0059,-0.1035 21.999989,21.999494 0 0 0 -22,-21.9995 z"
         style="fill:#ffffff;fill-opacity:0.19607843;stroke:#000000;stroke-width:0;stroke-miterlimit:4;stroke-dasharray:none;stroke-opacity:0" />
      <path
         id="path4137-0-3"
         d="m 24.000005,1050.3622 a 21.999989,21.999985 0 0 1 -22,-22 21.999989,21.999985 0 0 1 0.0059,-0.1465 21.999989,21.999985 0 0 0 21.9941,21.8965 21.999989,21.999985 0 0 0 21.994141,-21.8535 21.999989,21.999985 0 0 1 0.0059,0.1035 21.999989,21.999985 0 0 1 -22,22 z"
         style="fill:#000000;fill-opacity:0.19607843;stroke:#000000;stroke-width:0;stroke-miterlimit:4;stroke-dasharray:none;stroke-opacity:0"
         inkscape:connector-curvature="0" />
    </g>
    <path
       inkscape:connector-curvature="0"
       d="m 10.5,1033.3122 h 3 v -3 h -3 z m 0,6 h 3 v -3 h -3 z m 0,-12 h 3 v -3 h -3 z m 6,6 h 21 v -3 h -21 z m 0,6 h 21 v -3 h -21 z m 0,-15 v 3 h 21 v -3 z"
       id="path2-3-5"
       style="fill:#000000;fill-opacity:0.2;stroke-width:1.5;filter:url(#filter4580)" />
    <path
       inkscape:connector-curvature="0"
       d="m 10.5,1033.0622 h 3 v -3 h -3 z m 0,6 h 3 v -3 h -3 z m 0,-12 h 3 v -3 h -3 z m 6,6 h 21 v -3 h -21 z m 0,6 h 21 v -3 h -21 z m 0,-15 v 3 h 21 v -3 z"
       id="path2-3"
       style="fill:#ffffff;fill-opacity:1;stroke-width:1.5" />
    <path
       style="fill:#000000;fill-opacity:0.2;stroke-width:1.5"
       d="m 10.5,1026.8122 v 0.25 h 3 v -0.25 z m 6,0 v 0.25 h 21 v -0.25 z m -6,6 v 0.25 h 3 v -0.25 z m 6,0 v 0.25 h 21 v -0.25 z m -6,6 v 0.25 h 3 v -0.25 z m 6,0 v 0.25 h 21 v -0.25 z"
       id="path2-3-6"
       inkscape:connector-curvature="0" />
  </g>
</svg>
