<?xml version="1.0" encoding="UTF-8" standalone="no"?>
<!-- Created with Inkscape (http://www.inkscape.org/) -->

<svg
   xmlns:dc="http://purl.org/dc/elements/1.1/"
   xmlns:cc="http://creativecommons.org/ns#"
   xmlns:rdf="http://www.w3.org/1999/02/22-rdf-syntax-ns#"
   xmlns:svg="http://www.w3.org/2000/svg"
   xmlns="http://www.w3.org/2000/svg"
   xmlns:sodipodi="http://sodipodi.sourceforge.net/DTD/sodipodi-0.dtd"
   xmlns:inkscape="http://www.inkscape.org/namespaces/inkscape"
   width="108"
   height="108"
   viewBox="0 0 108 108"
   id="svg4741"
   version="1.1"
   inkscape:version="0.92.2 5c3e80d, 2017-08-06"
   sodipodi:docname="ic_launcher_foreground.svg">
  <defs
     id="defs4743">
    <filter
       inkscape:collect="always"
       style="color-interpolation-filters:sRGB"
       id="filter4580"
       x="-0.037333332"
       width="1.0746667"
       y="-0.067199998"
       height="1.1344">
      <feGaussianBlur
         inkscape:collect="always"
         stdDeviation="0.42"
         id="feGaussianBlur4582" />
    </filter>
  </defs>
  <sodipodi:namedview
     id="base"
     pagecolor="#ffffff"
     bordercolor="#666666"
     borderopacity="1.0"
     inkscape:pageopacity="0.0"
     inkscape:pageshadow="2"
     inkscape:zoom="2.8"
     inkscape:cx="-53.777425"
     inkscape:cy="62.766988"
     inkscape:document-units="px"
     inkscape:current-layer="layer1"
     showgrid="false"
     units="px"
     inkscape:window-width="1918"
     inkscape:window-height="1045"
     inkscape:window-x="2560"
     inkscape:window-y="20"
     inkscape:window-maximized="0"
     scale-x="1" />
  <metadata
     id="metadata4746">
    <rdf:RDF>
      <cc:Work
         rdf:about="">
        <dc:format>image/svg+xml</dc:format>
        <dc:type
           rdf:resource="http://purl.org/dc/dcmitype/StillImage" />
        <dc:title></dc:title>
      </cc:Work>
    </rdf:RDF>
  </metadata>
  <g
     inkscape:label="Ebene 1"
     inkscape:groupmode="layer"
     id="layer1"
     transform="translate(0,-947.5622)">
    <path
       inkscape:connector-curvature="0"
       d="m 15.246,1025.6912 h 3 v -3 h -3 z m 0,6 h 3 v -3 h -3 z m 0,-12 h 3 v -3 h -3 z m 6,6 h 21 v -3 h -21 z m 0,6 h 21 v -3 h -21 z m 0,-15 v 3 h 21 v -3 z"
       id="path2-3-5"
       style="fill:#000000;fill-opacity:0.2;stroke-width:1.5;filter:url(#filter4580)"
       transform="matrix(1.4999999,0,0,1.4999999,10.881001,-534.3495)" />
    <path
       inkscape:connector-curvature="0"
       d="m 33.75,1003.8122 h 4.5 v -4.5 h -4.5 z m 0,9 h 4.5 v -4.5 h -4.5 z m 0,-18 h 4.5 v -4.5 h -4.5 z m 8.999999,9 h 31.499998 v -4.5 H 42.749999 Z m 0,9 h 31.499998 v -4.5 H 42.749999 Z m 0,-22.5 v 4.5 h 31.499998 v -4.5 z"
       id="path2-3"
       style="fill:#ffffff;fill-opacity:1;stroke-width:2.24999976" />
    <path
       style="fill:#000000;fill-opacity:0.2;stroke-width:2.24999976"
       d="m 33.75,994.4372 v 0.375 h 4.5 v -0.375 z m 8.999999,0 v 0.375 h 31.499998 v -0.375 z m -8.999999,9 v 0.375 h 4.5 v -0.375 z m 8.999999,0 v 0.375 h 31.499998 v -0.375 z m -8.999999,9 v 0.375 h 4.5 v -0.375 z m 8.999999,0 v 0.375 h 31.499998 v -0.375 z"
       id="path2-3-6"
       inkscape:connector-curvature="0" />
  </g>
</svg>
