<?xml version="1.0" encoding="UTF-8" standalone="no"?>
<!-- Created with Inkscape (http://www.inkscape.org/) -->

<svg
   xmlns:dc="http://purl.org/dc/elements/1.1/"
   xmlns:cc="http://creativecommons.org/ns#"
   xmlns:rdf="http://www.w3.org/1999/02/22-rdf-syntax-ns#"
   xmlns:svg="http://www.w3.org/2000/svg"
   xmlns="http://www.w3.org/2000/svg"
   xmlns:sodipodi="http://sodipodi.sourceforge.net/DTD/sodipodi-0.dtd"
   xmlns:inkscape="http://www.inkscape.org/namespaces/inkscape"
   width="1024"
   height="500"
   viewBox="0 0 960 468.75001"
   id="svg4145"
   version="1.1"
   inkscape:version="0.92.1 r"
   sodipodi:docname="featured_image.svg">
  <defs
     id="defs4147">
    <filter
       inkscape:collect="always"
       style="color-interpolation-filters:sRGB"
       id="filter4527"
       x="-0.057"
       width="1.114"
       y="-0.041454545"
       height="1.0829091">
      <feGaussianBlur
         inkscape:collect="always"
         stdDeviation="2.85"
         id="feGaussianBlur4529" />
    </filter>
  </defs>
  <sodipodi:namedview
     id="base"
     pagecolor="#ffffff"
     bordercolor="#666666"
     borderopacity="1.0"
     inkscape:pageopacity="0.0"
     inkscape:pageshadow="2"
     inkscape:zoom="1.979899"
     inkscape:cx="529.3638"
     inkscape:cy="309.67794"
     inkscape:document-units="px"
     inkscape:current-layer="layer1"
     showgrid="false"
     units="px"
     inkscape:window-width="3840"
     inkscape:window-height="2087"
     inkscape:window-x="1920"
     inkscape:window-y="44"
     inkscape:window-maximized="1" />
  <metadata
     id="metadata4150">
    <rdf:RDF>
      <cc:Work
         rdf:about="">
        <dc:format>image/svg+xml</dc:format>
        <dc:type
           rdf:resource="http://purl.org/dc/dcmitype/StillImage" />
        <dc:title />
      </cc:Work>
    </rdf:RDF>
  </metadata>
  <g
     inkscape:label="Ebene 1"
     inkscape:groupmode="layer"
     id="layer1"
     transform="translate(0,-583.61212)">
    <rect
       style="fill:#1976d2;fill-opacity:1;stroke-width:0.9375"
       id="rect4482"
       width="960"
       height="468.75"
       x="1.4210855e-14"
       y="583.61212" />
    <path
       inkscape:connector-curvature="0"
       style="fill:#000000;fill-opacity:0.2;stroke-width:3.75;filter:url(#filter4527)"
       d="m 435,736.42462 c -8.31,0 -15,6.69 -15,15 v 135 c 0,8.31 6.69,15 15,15 h 90 c 8.31,0 15,-6.69 15,-15 v -135 c 0,-8.31 -6.69,-15 -15,-15 z m 0,15 h 90 v 135 h -90 z m 11.25,11.25 v 7.5 h 7.5 v -7.5 z m 15,0 v 7.5 h 52.5 v -7.5 z m -15,15 v 7.5 h 7.5 v -7.5 z m 15,0 v 7.5 h 52.5 v -7.5 z m -15,15 v 7.5 h 7.5 v -7.5 z m 15,0 v 7.5 h 52.5 v -7.5 z m -15,15 v 7.5 h 7.5 v -7.5 z m 15,0 v 7.5 h 52.5 v -7.5 z m -15,15 v 7.5 h 7.5 v -7.5 z m 15,0 v 7.5 h 52.5 v -7.5 z m -15,15 v 7.5 h 7.5 v -7.5 z m 15,0 v 7.5 h 52.5 v -7.5 z m -15,15 v 7.5 h 7.5 v -7.5 z m 15,0 v 7.5 h 52.5 v -7.5 z m -15,15 v 7.5 h 7.5 v -7.5 z m 15,0 v 7.5 h 52.5 v -7.5 z"
       id="rect4509-7" />
    <path
       inkscape:connector-curvature="0"
       style="fill:#ffffff;fill-opacity:1;stroke-width:3.75"
       d="m 435,735.48712 c -8.31,0 -15,6.69 -15,15 v 135 c 0,8.31 6.69,15 15,15 h 90 c 8.31,0 15,-6.69 15,-15 v -135 c 0,-8.31 -6.69,-15 -15,-15 z m 0,15 h 90 v 135 h -90 z m 11.25,11.25 v 7.5 h 7.5 v -7.5 z m 15,0 v 7.5 h 52.5 v -7.5 z m -15,15 v 7.5 h 7.5 v -7.5 z m 15,0 v 7.5 h 52.5 v -7.5 z m -15,15 v 7.5 h 7.5 v -7.5 z m 15,0 v 7.5 h 52.5 v -7.5 z m -15,15 v 7.5 h 7.5 v -7.5 z m 15,0 v 7.5 h 52.5 v -7.5 z m -15,15 v 7.5 h 7.5 v -7.5 z m 15,0 v 7.5 h 52.5 v -7.5 z m -15,15 v 7.5 h 7.5 v -7.5 z m 15,0 v 7.5 h 52.5 v -7.5 z m -15,15 v 7.5 h 7.5 v -7.5 z m 15,0 v 7.5 h 52.5 v -7.5 z m -15,15 v 7.5 h 7.5 v -7.5 z m 15,0 v 7.5 h 52.5 v -7.5 z"
       id="rect4509" />
    <path
       style="fill:#000000;fill-opacity:0.2;stroke-width:3.75"
       d="m 435,749.54964 v 0.9375 h 90.00001 v -0.9375 z m 11.25,18.75 v 0.9375 h 7.5 v -0.9375 z m 15,0 v 0.9375 h 52.50001 v -0.9375 z m -15,15 v 0.9375 h 7.5 v -0.9375 z m 15,0 v 0.9375 h 52.50001 v -0.9375 z m -15,15 v 0.9375 h 7.5 v -0.9375 z m 15,0 v 0.9375 h 52.50001 v -0.9375 z m -15,15 v 0.9375 h 7.5 v -0.9375 z m 15,0 v 0.9375 h 52.50001 v -0.9375 z m -15,15 v 0.9375 h 7.5 v -0.9375 z m 15,0 v 0.9375 h 52.50001 v -0.9375 z m -15,15 v 0.9375 h 7.5 v -0.9375 z m 15,0 v 0.9375 h 52.50001 v -0.9375 z m -15,14.99998 v 0.9375 h 7.5 v -0.9375 z m 15,0 v 0.9375 h 52.50001 v -0.9375 z m -15,15 v 0.9375 h 7.5 v -0.9375 z m 15,0 v 0.9375 h 52.50001 v -0.9375 z m -41.25,11.25 v 0.9375 c 0,8.31 6.69,15 15,15 h 90.00001 c 8.31,0 15,-6.69 15,-15 v -0.9375 c 0,8.31 -6.69,15 -15,15 H 435 c -8.31,0 -15,-6.69 -15,-15 z"
       id="rect4509-3"
       inkscape:connector-curvature="0" />
  </g>
</svg>
